<svg width="23" height="25" viewBox="0 0 23 25" fill="none" xmlns="http://www.w3.org/2000/svg">
<path fill-rule="evenodd" clip-rule="evenodd" d="M18.559 7.77566C16.6266 8.30779 15.3612 9.50157 14.9193 11.5528C14.4774 9.50801 13.2161 8.31006 11.2793 7.77604C13.2094 7.24542 14.4715 6.05125 14.9175 4C15.3601 6.05012 16.6277 7.24504 18.559 7.77566ZM11.2786 10.9565C11.8224 13.649 13.426 15.2338 15.877 15.9268C13.4315 16.615 11.8235 18.2009 11.2793 20.8945C10.7341 18.2039 9.13096 16.6224 6.68164 15.9272C9.12678 15.2375 10.7345 13.6535 11.2783 10.9565H11.2786ZM6.69393 7.77637C6.3606 9.16574 5.44594 9.97645 4.00038 10.3561L4 10.3564C4.71178 10.5116 5.28629 10.8049 5.76865 11.261C6.24911 11.7157 6.55324 12.2603 6.68673 12.9441C7.03409 11.5308 7.94723 10.7197 9.36397 10.3499C7.9423 9.97971 7.02499 9.16429 6.69393 7.77637Z" fill="#252726"/>
</svg>
