<svg width="101" height="12" viewBox="0 0 101 12" fill="none" xmlns="http://www.w3.org/2000/svg">
<path d="M18.5859 9.5V2.22461H21.2568C21.7712 2.22461 22.1976 2.30924 22.5361 2.47852C22.8747 2.64779 23.127 2.87728 23.293 3.16699C23.4622 3.45345 23.5469 3.77572 23.5469 4.13379C23.5469 4.43652 23.4899 4.69206 23.376 4.90039C23.2653 5.10872 23.1172 5.27474 22.9316 5.39844C22.7461 5.52214 22.541 5.61328 22.3164 5.67188V5.74023C22.5605 5.75326 22.7982 5.83138 23.0293 5.97461C23.2604 6.11784 23.4508 6.32129 23.6006 6.58496C23.7536 6.84538 23.8301 7.16439 23.8301 7.54199C23.8301 7.91309 23.7422 8.24674 23.5664 8.54297C23.3939 8.83594 23.127 9.06868 22.7656 9.24121C22.4043 9.41374 21.9404 9.5 21.374 9.5H18.5859ZM19.6846 8.5625H21.2666C21.7939 8.5625 22.1715 8.45996 22.3994 8.25488C22.6273 8.0498 22.7412 7.79427 22.7412 7.48828C22.7412 7.25716 22.6826 7.0472 22.5654 6.8584C22.4515 6.66634 22.2871 6.51335 22.0723 6.39941C21.8574 6.28548 21.6035 6.22852 21.3105 6.22852H19.6846V8.5625ZM19.6846 5.37402H21.1592C21.4033 5.37402 21.6247 5.32682 21.8232 5.23242C22.0218 5.13802 22.1781 5.00456 22.292 4.83203C22.4092 4.65625 22.4678 4.4528 22.4678 4.22168C22.4678 3.9222 22.362 3.67155 22.1504 3.46973C21.9421 3.26465 21.6214 3.16211 21.1885 3.16211H19.6846V5.37402ZM28.0879 7.24414V4.04102H29.1426V9.5H28.1074V8.55273H28.0488C27.9186 8.84245 27.7168 9.08496 27.4434 9.28027C27.1699 9.47559 26.8281 9.57161 26.418 9.56836C26.0664 9.56836 25.7555 9.49186 25.4854 9.33887C25.2184 9.18587 25.0085 8.95638 24.8555 8.65039C24.7057 8.3444 24.6309 7.96517 24.6309 7.5127V4.04102H25.6855V7.39062C25.6855 7.75846 25.7897 8.05306 25.998 8.27441C26.2064 8.49577 26.4749 8.60482 26.8037 8.60156C27.0023 8.60156 27.1992 8.55273 27.3945 8.45508C27.5931 8.35742 27.7575 8.20768 27.8877 8.00586C28.0212 7.80404 28.0879 7.55013 28.0879 7.24414ZM30.1582 9.5V4.04102H31.2129V9.5H30.1582ZM30.6904 3.20117C30.5049 3.20117 30.347 3.13932 30.2168 3.01562C30.0866 2.89193 30.0215 2.74382 30.0215 2.57129C30.0215 2.39551 30.0866 2.24577 30.2168 2.12207C30.347 1.99837 30.5049 1.93652 30.6904 1.93652C30.8727 1.93652 31.029 1.99837 31.1592 2.12207C31.2926 2.24577 31.3594 2.39551 31.3594 2.57129C31.3594 2.74382 31.2926 2.89193 31.1592 3.01562C31.029 3.13932 30.8727 3.20117 30.6904 3.20117ZM33.2832 2.22461V9.5H32.2285V2.22461H33.2832ZM36.3301 9.60742C35.8874 9.60742 35.4935 9.49512 35.1484 9.27051C34.8034 9.04264 34.5332 8.71875 34.3379 8.29883C34.1426 7.87565 34.0449 7.37109 34.0449 6.78516C34.0449 6.19271 34.1442 5.68652 34.3428 5.2666C34.5413 4.84668 34.8132 4.52604 35.1582 4.30469C35.5033 4.08333 35.8939 3.97266 36.3301 3.97266C36.6719 3.97266 36.9453 4.02962 37.1504 4.14355C37.3587 4.25423 37.5199 4.38444 37.6338 4.53418C37.751 4.68392 37.8405 4.81576 37.9023 4.92969H37.9658V2.22461H39.0205V9.5H37.9902V8.65039H37.9023C37.8405 8.76432 37.7493 8.89616 37.6289 9.0459C37.5085 9.19564 37.3441 9.32747 37.1357 9.44141C36.9307 9.55208 36.6621 9.60742 36.3301 9.60742ZM36.5596 8.7041C36.8656 8.7041 37.1243 8.62272 37.3359 8.45996C37.5475 8.2972 37.707 8.07096 37.8145 7.78125C37.9251 7.49154 37.9805 7.15625 37.9805 6.77539C37.9805 6.39453 37.9268 6.0625 37.8193 5.7793C37.7119 5.49284 37.5524 5.27148 37.3408 5.11523C37.1292 4.95573 36.8688 4.87598 36.5596 4.87598C36.2406 4.87598 35.9753 4.95898 35.7637 5.125C35.5521 5.29102 35.3926 5.51725 35.2852 5.80371C35.1777 6.09017 35.124 6.41406 35.124 6.77539C35.124 7.13997 35.1777 7.46875 35.2852 7.76172C35.3926 8.05143 35.5521 8.28092 35.7637 8.4502C35.9785 8.61947 36.2438 8.7041 36.5596 8.7041ZM45.7246 7.24414V4.04102H46.7793V9.5H45.7441V8.55273H45.6855C45.5553 8.84245 45.3535 9.08496 45.0801 9.28027C44.8066 9.47559 44.4648 9.57161 44.0547 9.56836C43.7031 9.56836 43.3923 9.49186 43.1221 9.33887C42.8551 9.18587 42.6452 8.95638 42.4922 8.65039C42.3424 8.3444 42.2676 7.96517 42.2676 7.5127V4.04102H43.3223V7.39062C43.3223 7.75846 43.4264 8.05306 43.6348 8.27441C43.8431 8.49577 44.1117 8.60482 44.4404 8.60156C44.639 8.60156 44.8359 8.55273 45.0312 8.45508C45.2298 8.35742 45.3942 8.20768 45.5244 8.00586C45.6579 7.80404 45.7246 7.55013 45.7246 7.24414ZM51.877 5.37891L50.915 5.54492C50.8532 5.36263 50.7376 5.19499 50.5684 5.04199C50.4023 4.889 50.1533 4.8125 49.8213 4.8125C49.5218 4.8125 49.2712 4.88086 49.0693 5.01758C48.8708 5.15104 48.7715 5.32194 48.7715 5.53027C48.7715 5.71257 48.8382 5.86068 48.9717 5.97461C49.1084 6.08854 49.3249 6.17969 49.6211 6.24805L50.4951 6.44336C50.9932 6.55729 51.3659 6.73633 51.6133 6.98047C51.8607 7.22461 51.9844 7.53711 51.9844 7.91797C51.9844 8.24674 51.89 8.53971 51.7012 8.79688C51.5124 9.05078 51.2503 9.25098 50.915 9.39746C50.5798 9.54069 50.1924 9.6123 49.7529 9.6123C49.141 9.6123 48.6429 9.48047 48.2588 9.2168C47.8747 8.95312 47.6387 8.58203 47.5508 8.10352L48.5713 7.94727C48.6364 8.21419 48.7682 8.41602 48.9668 8.55273C49.1686 8.68945 49.429 8.75781 49.748 8.75781C50.0931 8.75781 50.3698 8.68457 50.5781 8.53809C50.7897 8.3916 50.8955 8.21419 50.8955 8.00586C50.8955 7.66081 50.6383 7.42806 50.124 7.30762L49.2012 7.10254C48.6901 6.98535 48.3125 6.80143 48.0684 6.55078C47.8275 6.29688 47.707 5.97786 47.707 5.59375C47.707 5.27148 47.7965 4.98828 47.9756 4.74414C48.1579 4.5 48.4069 4.3112 48.7227 4.17773C49.0417 4.04102 49.4046 3.97266 49.8115 3.97266C50.404 3.97266 50.8678 4.10124 51.2031 4.3584C51.5417 4.61556 51.7663 4.95573 51.877 5.37891ZM52.7266 9.5V4.04102H53.7812V9.5H52.7266ZM53.2588 3.20117C53.0732 3.20117 52.9154 3.13932 52.7852 3.01562C52.6549 2.89193 52.5898 2.74382 52.5898 2.57129C52.5898 2.39551 52.6549 2.24577 52.7852 2.12207C52.9154 1.99837 53.0732 1.93652 53.2588 1.93652C53.4411 1.93652 53.5973 1.99837 53.7275 2.12207C53.861 2.24577 53.9277 2.39551 53.9277 2.57129C53.9277 2.74382 53.861 2.89193 53.7275 3.01562C53.5973 3.13932 53.4411 3.20117 53.2588 3.20117ZM55.8516 6.2627V9.5H54.7969V4.04102H55.8223V4.93945H55.8955C56.0192 4.64323 56.2129 4.40885 56.4766 4.23633C56.7402 4.06055 57.0788 3.97266 57.4922 3.97266C57.8633 3.97266 58.1872 4.05078 58.4639 4.20703C58.7438 4.36003 58.9603 4.58952 59.1133 4.89551C59.2695 5.2015 59.3477 5.58073 59.3477 6.0332V9.5H58.293V6.16016C58.293 5.76628 58.1888 5.45703 57.9805 5.23242C57.7721 5.00456 57.4889 4.89062 57.1309 4.89062C56.8867 4.89062 56.667 4.94596 56.4717 5.05664C56.2796 5.16406 56.1283 5.31868 56.0176 5.52051C55.9069 5.72233 55.8516 5.96973 55.8516 6.2627ZM62.6387 11.6582C61.9876 11.6582 61.4749 11.5361 61.1006 11.292C60.7262 11.0479 60.4674 10.7581 60.3242 10.4229L61.2324 10.0469C61.2975 10.151 61.3838 10.2617 61.4912 10.3789C61.6019 10.4961 61.75 10.5954 61.9355 10.6768C62.1211 10.7581 62.3604 10.7988 62.6533 10.7988C63.0537 10.7988 63.3857 10.7012 63.6494 10.5059C63.9131 10.3138 64.0449 10.0046 64.0449 9.57812V8.50879H63.9717C63.9131 8.62272 63.8236 8.7513 63.7031 8.89453C63.5827 9.03451 63.4183 9.15658 63.21 9.26074C63.0016 9.36491 62.7298 9.41699 62.3945 9.41699C61.9648 9.41699 61.5775 9.31608 61.2324 9.11426C60.8906 8.90918 60.6172 8.6097 60.4121 8.21582C60.2103 7.81868 60.1094 7.3304 60.1094 6.75098C60.1094 6.17155 60.2087 5.67513 60.4072 5.26172C60.609 4.84505 60.8825 4.52604 61.2275 4.30469C61.5726 4.08333 61.9648 3.97266 62.4043 3.97266C62.7428 3.97266 63.0163 4.02962 63.2246 4.14355C63.4362 4.25423 63.6006 4.38444 63.7178 4.53418C63.835 4.68392 63.9261 4.81576 63.9912 4.92969H64.0693V4.04102H65.0996V9.62207C65.0996 10.0908 64.9906 10.4749 64.7725 10.7744C64.5576 11.0739 64.2646 11.2952 63.8936 11.4385C63.5225 11.585 63.1042 11.6582 62.6387 11.6582ZM62.6289 8.5332C63.0879 8.5332 63.4395 8.37533 63.6836 8.05957C63.931 7.74056 64.0547 7.29948 64.0547 6.73633C64.0547 6.36849 64.001 6.04622 63.8936 5.76953C63.7861 5.48958 63.6266 5.27148 63.415 5.11523C63.2035 4.95573 62.9414 4.87598 62.6289 4.87598C62.3099 4.87598 62.043 4.95898 61.8281 5.125C61.6165 5.28776 61.457 5.51074 61.3496 5.79395C61.2422 6.07389 61.1885 6.38802 61.1885 6.73633C61.1885 7.09115 61.2422 7.40527 61.3496 7.67871C61.457 7.94889 61.6182 8.15885 61.833 8.30859C62.0511 8.45833 62.3164 8.5332 62.6289 8.5332Z" fill="#3D3D3D"/>
<path d="M71.5498 9.59766C70.8825 9.59766 70.2949 9.44629 69.7871 9.14355C69.2826 8.84082 68.8887 8.41113 68.6055 7.85449C68.3223 7.29785 68.1807 6.63704 68.1807 5.87207C68.1807 5.09082 68.3255 4.42025 68.6152 3.86035C68.9082 3.30046 69.3053 2.8724 69.8066 2.57617C70.3079 2.27669 70.876 2.12695 71.5107 2.12695C71.9144 2.12695 72.2887 2.18555 72.6338 2.30273C72.9821 2.41992 73.2913 2.58757 73.5615 2.80566C73.8317 3.02051 74.0531 3.27604 74.2256 3.57227C74.4014 3.86849 74.5186 4.19401 74.5771 4.54883H73.2344C73.1758 4.35677 73.0944 4.18424 72.9902 4.03125C72.8893 3.87826 72.7656 3.74805 72.6191 3.64062C72.4759 3.52995 72.3132 3.44694 72.1309 3.3916C71.9486 3.33626 71.7467 3.30859 71.5254 3.30859C71.138 3.30859 70.7913 3.40788 70.4854 3.60645C70.1794 3.80176 69.9385 4.08984 69.7627 4.4707C69.5902 4.84831 69.5039 5.31055 69.5039 5.85742C69.5039 6.40755 69.5902 6.87305 69.7627 7.25391C69.9352 7.63477 70.1761 7.92448 70.4854 8.12305C70.7946 8.31836 71.1527 8.41602 71.5596 8.41602C71.9274 8.41602 72.2464 8.34603 72.5166 8.20605C72.7868 8.06283 72.9951 7.861 73.1416 7.60059C73.2881 7.34017 73.3613 7.03255 73.3613 6.67773L73.6641 6.72656H71.6865V5.69629H74.6406V6.56543C74.6406 7.19043 74.5088 7.72917 74.2451 8.18164C73.9814 8.63411 73.6152 8.98405 73.1465 9.23145C72.681 9.47559 72.1488 9.59766 71.5498 9.59766ZM75.4854 9.5V4.04102H76.7305V4.95898H76.7891C76.8867 4.63997 77.0576 4.39583 77.3018 4.22656C77.5459 4.05404 77.8242 3.96777 78.1367 3.96777C78.2051 3.96777 78.2832 3.97103 78.3711 3.97754C78.4622 3.98405 78.5371 3.99219 78.5957 4.00195V5.18359C78.5404 5.16406 78.4541 5.14779 78.3369 5.13477C78.2197 5.12174 78.1074 5.11523 78 5.11523C77.7624 5.11523 77.5508 5.16569 77.3652 5.2666C77.1797 5.36751 77.0332 5.50586 76.9258 5.68164C76.8216 5.85742 76.7695 6.0625 76.7695 6.29688V9.5H75.4854ZM80.5439 9.6123C80.1956 9.6123 79.8831 9.55046 79.6064 9.42676C79.3298 9.2998 79.1117 9.11426 78.9521 8.87012C78.7926 8.62598 78.7129 8.32487 78.7129 7.9668C78.7129 7.66081 78.7699 7.4069 78.8838 7.20508C78.9977 7.00326 79.1523 6.84212 79.3477 6.72168C79.5462 6.60124 79.7692 6.51009 80.0166 6.44824C80.264 6.38314 80.5195 6.33757 80.7832 6.31152C81.1055 6.27572 81.3659 6.24479 81.5645 6.21875C81.763 6.19271 81.9062 6.15039 81.9941 6.0918C82.0853 6.0332 82.1309 5.94206 82.1309 5.81836V5.79395C82.1309 5.53027 82.0527 5.3252 81.8965 5.17871C81.7402 5.03223 81.5124 4.95898 81.2129 4.95898C80.8971 4.95898 80.6465 5.02734 80.4609 5.16406C80.2786 5.30078 80.1549 5.46191 80.0898 5.64746L78.8936 5.47656C78.988 5.14453 79.1442 4.86784 79.3623 4.64648C79.5804 4.42188 79.8457 4.25423 80.1582 4.14355C80.474 4.02962 80.8223 3.97266 81.2031 3.97266C81.4635 3.97266 81.724 4.00358 81.9844 4.06543C82.2448 4.12402 82.484 4.22493 82.7021 4.36816C82.9202 4.51139 83.0944 4.70345 83.2246 4.94434C83.3548 5.18522 83.4199 5.48633 83.4199 5.84766V9.5H82.1846V8.74805H82.1455C82.0674 8.89779 81.9567 9.03939 81.8135 9.17285C81.6735 9.30306 81.4977 9.40885 81.2861 9.49023C81.0778 9.57161 80.8304 9.6123 80.5439 9.6123ZM80.8711 8.66504C81.1315 8.66504 81.3561 8.61458 81.5449 8.51367C81.7337 8.40951 81.8802 8.27279 81.9844 8.10352C82.0885 7.93099 82.1406 7.74382 82.1406 7.54199V6.90234C82.0983 6.9349 82.0299 6.96582 81.9355 6.99512C81.8411 7.02116 81.7337 7.04557 81.6133 7.06836C81.4928 7.09115 81.374 7.11068 81.2568 7.12695C81.1429 7.14323 81.0436 7.15625 80.959 7.16602C80.7669 7.19206 80.5944 7.236 80.4414 7.29785C80.2917 7.35645 80.1729 7.43783 80.085 7.54199C79.9971 7.64616 79.9531 7.78125 79.9531 7.94727C79.9531 8.1849 80.0394 8.36393 80.2119 8.48438C80.3844 8.60482 80.6042 8.66504 80.8711 8.66504ZM86.3838 9.59766C85.9574 9.59766 85.5732 9.48861 85.2314 9.27051C84.8929 9.04915 84.626 8.72852 84.4307 8.30859C84.2354 7.88867 84.1377 7.37923 84.1377 6.78027C84.1377 6.17155 84.237 5.65885 84.4355 5.24219C84.6374 4.82552 84.9076 4.50977 85.2461 4.29492C85.5846 4.08008 85.9639 3.97266 86.3838 3.97266C86.7061 3.97266 86.9697 4.02637 87.1748 4.13379C87.3799 4.24121 87.5426 4.37142 87.6631 4.52441C87.7868 4.67415 87.8812 4.81413 87.9463 4.94434H88V2.22461H89.2793V9.5H88.0244V8.63574H87.9463C87.8779 8.76921 87.7819 8.91081 87.6582 9.06055C87.5345 9.20703 87.3701 9.33398 87.165 9.44141C86.96 9.54557 86.6995 9.59766 86.3838 9.59766ZM86.7402 8.54297C87.0137 8.54297 87.2448 8.46973 87.4336 8.32324C87.6257 8.1735 87.7721 7.9668 87.873 7.70312C87.974 7.4362 88.0244 7.12695 88.0244 6.77539C88.0244 6.42057 87.974 6.11296 87.873 5.85254C87.7754 5.58887 87.6305 5.38542 87.4385 5.24219C87.2497 5.09896 87.0169 5.02734 86.7402 5.02734C86.457 5.02734 86.2194 5.10221 86.0273 5.25195C85.8353 5.40169 85.6904 5.6084 85.5928 5.87207C85.4984 6.13574 85.4512 6.43685 85.4512 6.77539C85.4512 7.11393 85.5 7.41667 85.5977 7.68359C85.6953 7.95052 85.8385 8.16048 86.0273 8.31348C86.2194 8.46647 86.457 8.54297 86.7402 8.54297ZM93.708 7.20996V4.04102H94.9922V9.5H93.7471V8.52832H93.6885C93.5648 8.83431 93.363 9.08496 93.083 9.28027C92.8031 9.47559 92.458 9.57161 92.0479 9.56836C91.6898 9.56836 91.374 9.49023 91.1006 9.33398C90.8304 9.17448 90.6172 8.94173 90.4609 8.63574C90.3079 8.3265 90.2314 7.95378 90.2314 7.51758V4.04102H91.5156V7.32227C91.5156 7.66406 91.61 7.9375 91.7988 8.14258C91.9909 8.34766 92.2415 8.44857 92.5508 8.44531C92.7396 8.44531 92.9219 8.39974 93.0977 8.30859C93.2767 8.21745 93.4232 8.08073 93.5371 7.89844C93.651 7.71615 93.708 7.48665 93.708 7.20996ZM100.251 5.49121L99.084 5.61328C99.0352 5.43424 98.9294 5.27637 98.7666 5.13965C98.6038 4.99967 98.3743 4.92969 98.0781 4.92969C97.8112 4.92969 97.5866 4.98828 97.4043 5.10547C97.2253 5.22266 97.1357 5.3724 97.1357 5.55469C97.1357 5.71419 97.1943 5.84603 97.3115 5.9502C97.432 6.05111 97.6305 6.13249 97.9072 6.19434L98.8398 6.38965C99.3509 6.49707 99.7334 6.67285 99.9873 6.91699C100.241 7.16113 100.368 7.47689 100.368 7.86426C100.368 8.20605 100.269 8.50879 100.07 8.77246C99.8717 9.03613 99.5967 9.24121 99.2451 9.3877C98.8968 9.53418 98.4948 9.60742 98.0391 9.60742C97.3717 9.60742 96.8346 9.46745 96.4277 9.1875C96.0241 8.9043 95.7816 8.51204 95.7002 8.01074L96.9551 7.89355C97.0104 8.1377 97.1309 8.32324 97.3164 8.4502C97.5052 8.57389 97.7461 8.63574 98.0391 8.63574C98.3451 8.63574 98.5908 8.57389 98.7764 8.4502C98.9619 8.32324 99.0547 8.16862 99.0547 7.98633C99.0547 7.68034 98.8105 7.47201 98.3223 7.36133L97.3896 7.16602C96.8656 7.05208 96.4782 6.86816 96.2275 6.61426C95.9769 6.3571 95.8516 6.02995 95.8516 5.63281C95.8516 5.29427 95.9443 5.0013 96.1299 4.75391C96.3154 4.50651 96.5742 4.31445 96.9062 4.17773C97.2383 4.04102 97.6224 3.97266 98.0586 3.97266C98.6999 3.97266 99.2028 4.111 99.5674 4.3877C99.9352 4.66113 100.163 5.02897 100.251 5.49121Z" fill="#E7801C"/>
<g clip-path="url(#clip0_923_1774)">
<path d="M12.8581 7.6706L10.3993 5.26519C10.3081 5.17615 10.1846 5.12614 10.0558 5.12614C9.92698 5.12614 9.80344 5.17615 9.7123 5.26519L8.8908 6.06977C8.84551 6.11379 8.80956 6.16615 8.78503 6.22381C8.7605 6.28148 8.74787 6.34332 8.74787 6.40579C8.74787 6.46825 8.7605 6.53009 8.78503 6.58776C8.80956 6.64543 8.84551 6.69778 8.8908 6.7418L9.36456 7.20527H7.84853C7.83212 7.20435 7.81566 7.20435 7.79925 7.20527C7.71698 7.19233 7.63905 7.16034 7.57197 7.11197C7.50489 7.06359 7.4506 7.00024 7.41361 6.92719C7.3604 6.81852 7.34962 6.69457 7.38329 6.57866L10.2259 1.75857C10.2839 1.65664 10.2994 1.53666 10.269 1.4238C10.2386 1.31095 10.1648 1.214 10.0629 1.15328L9.01208 0.560036C8.90623 0.500523 8.78059 0.484471 8.66267 0.515396C8.54475 0.546321 8.44415 0.621703 8.38293 0.725032L6.10888 4.57832C6.07903 4.56784 6.05017 4.55481 6.02265 4.53939C5.9465 4.49177 5.88305 4.42706 5.83757 4.35065C5.79209 4.27424 5.76589 4.18832 5.76114 4.10002V3.27875C5.76126 3.2032 5.74616 3.12837 5.71669 3.05854C5.68722 2.98871 5.64397 2.92524 5.58941 2.87178C5.53484 2.81831 5.47004 2.7759 5.3987 2.74696C5.32737 2.71802 5.2509 2.70312 5.17367 2.70312H1.36274C1.34095 2.70312 1.3201 2.70312 1.29831 2.70312C1.18848 2.70752 1.08364 2.74914 1.00173 2.82084C0.966644 2.84811 0.934854 2.87921 0.906981 2.91354L0.140436 3.66343C0.0967751 3.70598 0.0621311 3.75654 0.0384923 3.81221C0.0148536 3.86788 0.00268555 3.92758 0.00268555 3.98786C0.00268555 4.04815 0.0148536 4.10784 0.0384923 4.16351C0.0621311 4.21919 0.0967751 4.26975 0.140436 4.31229L2.62294 6.74087C2.66643 6.78359 2.71811 6.81748 2.77502 6.8406C2.83193 6.86373 2.89295 6.87563 2.95458 6.87563C3.0162 6.87563 3.07722 6.86373 3.13413 6.8406C3.19104 6.81748 3.24272 6.78359 3.28621 6.74087L4.13329 5.91219C4.17695 5.86965 4.2116 5.81909 4.23524 5.76341C4.25888 5.70774 4.27104 5.64805 4.27104 5.58776C4.27104 5.52747 4.25888 5.46778 4.23524 5.41211C4.2116 5.35644 4.17695 5.30588 4.13329 5.26333L3.64532 4.78596H5.16135C5.25837 4.78727 5.35279 4.8168 5.4326 4.87078C5.51241 4.92475 5.574 5.00074 5.60953 5.08907C5.65025 5.18693 5.65593 5.29539 5.62564 5.39681L2.76697 10.2262C2.73672 10.2774 2.71709 10.334 2.70919 10.3927C2.7013 10.4513 2.70529 10.5109 2.72096 10.5681C2.73662 10.6253 2.76364 10.6788 2.80047 10.7258C2.83731 10.7727 2.88323 10.8121 2.93563 10.8417L3.98548 11.4349C4.0379 11.4646 4.09581 11.484 4.15588 11.4918C4.21595 11.4996 4.277 11.4957 4.33554 11.4804C4.39408 11.465 4.44895 11.4385 4.497 11.4024C4.54506 11.3663 4.58535 11.3213 4.61558 11.2699L6.883 7.42866C6.92408 7.44195 6.96324 7.46033 6.99955 7.48335C7.07081 7.53219 7.13019 7.59581 7.17342 7.66967C7.21666 7.74354 7.24271 7.82583 7.24969 7.91067V8.70784C7.24969 8.86272 7.31258 9.01126 7.42453 9.12077C7.53648 9.23029 7.68831 9.29181 7.84663 9.29181H11.6367C11.685 9.29161 11.733 9.2857 11.7798 9.2742C11.877 9.25738 11.9667 9.21176 12.0366 9.1435L12.859 8.33892C12.9488 8.24979 12.999 8.12967 12.9988 8.00457C12.9986 7.87947 12.9481 7.75948 12.8581 7.6706Z" fill="#E7801C"/>
</g>
<defs>
<clipPath id="clip0_923_1774">
<rect width="13" height="11" fill="white" transform="translate(0 0.5)"/>
</clipPath>
</defs>
</svg>
