<svg width="274" height="149" viewBox="0 0 274 149" fill="none" xmlns="http://www.w3.org/2000/svg">
<path d="M219.077 97.2301L186.559 64.6242C185.353 63.4195 183.719 62.7429 182.015 62.7429C180.311 62.7429 178.676 63.4195 177.471 64.6242L166.59 75.5095C165.386 76.7158 164.709 78.3508 164.709 80.0556C164.709 81.7603 165.386 83.3953 166.59 84.6016L172.858 90.872H152.8C152.575 90.872 152.349 90.872 152.136 90.872C151.047 90.6988 150.015 90.2668 149.127 89.6121C148.239 88.9575 147.522 88.0993 147.034 87.1097C146.329 85.6353 146.186 83.9541 146.633 82.3819L184.24 17.17C184.642 16.4771 184.903 15.7116 185.008 14.9175C185.114 14.1234 185.061 13.3164 184.854 12.5426C184.646 11.7689 184.288 11.0437 183.8 10.4088C183.312 9.77393 182.703 9.24177 182.009 8.84289L168.119 0.816806C167.426 0.416455 166.661 0.156615 165.868 0.0521302C165.074 -0.052355 164.268 0.00056069 163.495 0.207856C162.722 0.415152 161.997 0.772764 161.363 1.26027C160.728 1.74777 160.195 2.35561 159.795 3.04906L129.709 55.1684C129.313 55.0355 128.931 54.8633 128.569 54.6543C127.564 54.0033 126.725 53.125 126.122 52.0902C125.519 51.0554 125.168 49.8932 125.096 48.6974V37.7995C125.093 35.7362 124.271 33.7586 122.812 32.3008C121.352 30.843 119.374 30.0242 117.312 30.0242H66.9931C65.2644 30.035 63.5868 30.612 62.217 31.6671C61.7528 32.036 61.3322 32.4567 60.9634 32.9211L50.822 43.0541C50.2443 43.6297 49.786 44.3137 49.4733 45.0669C49.1605 45.8201 48.9995 46.6277 48.9995 47.4433C48.9995 48.2589 49.1605 49.0665 49.4733 49.8198C49.786 50.573 50.2443 51.257 50.822 51.8326L83.6782 84.7019C84.2536 85.2798 84.9373 85.7383 85.6902 86.0512C86.4432 86.364 87.2504 86.5251 88.0657 86.5251C88.881 86.5251 89.6883 86.364 90.4412 86.0512C91.1941 85.7383 91.8779 85.2798 92.4532 84.7019L103.66 73.4905C104.238 72.9149 104.696 72.2309 105.009 71.4776C105.322 70.7244 105.483 69.9168 105.483 69.1012C105.483 68.2856 105.322 67.478 105.009 66.7248C104.696 65.9716 104.238 65.2875 103.66 64.7119L97.1917 58.2409H117.249V58.3162C118.522 58.3145 119.767 58.69 120.826 59.3953C121.886 60.1006 122.713 61.104 123.203 62.279C123.732 63.6014 123.803 65.0628 123.404 66.43L85.6588 131.83C84.8539 133.231 84.6369 134.894 85.0551 136.455C85.4733 138.015 86.4928 139.347 87.8902 140.157L101.792 148.183C102.485 148.584 103.25 148.843 104.044 148.948C104.837 149.052 105.643 148.999 106.416 148.792C107.189 148.585 107.914 148.227 108.549 147.74C109.184 147.252 109.716 146.644 110.116 145.951L140.077 94.0699C140.621 94.2426 141.139 94.4873 141.618 94.7972C142.564 95.4547 143.352 96.3147 143.925 97.3146C144.497 98.3146 144.84 99.4295 144.928 100.579V111.364C144.926 112.403 145.13 113.433 145.527 114.394C145.924 115.355 146.506 116.228 147.241 116.963C147.976 117.698 148.849 118.281 149.809 118.678C150.769 119.075 151.799 119.278 152.838 119.277H202.906C203.544 119.275 204.18 119.195 204.799 119.038C206.091 118.809 207.281 118.187 208.208 117.258L219.077 106.385C219.686 105.788 220.169 105.076 220.499 104.29C220.829 103.504 221 102.66 221 101.807C221 100.955 220.829 100.111 220.499 99.325C220.169 98.539 219.686 97.8268 219.077 97.2301Z" fill="#C9DDFF"/>
<g clip-path="url(#clip0_666_995)">
<path d="M212.023 68.4512C212.023 68.571 211.921 70.9446 209.969 72.0475C209.055 72.5422 207.991 72.6643 206.992 72.3891C205.469 74.3161 205.674 77.0823 207.327 78.6407C208.08 79.3212 209.034 79.7247 210.037 79.7866C211.041 79.8485 212.035 79.5654 212.863 78.9823C212.732 78.1533 212.848 77.3032 213.197 76.5428C214.172 74.478 216.532 74.1663 216.72 74.1453C216.563 72.6858 215.945 71.3182 214.959 70.2493C214.154 69.3941 213.141 68.7734 212.023 68.4512Z" fill="#ACCAFF"/>
<path d="M196.426 80.5863C196.413 82.2846 196.896 83.9482 197.813 85.3654C198.729 86.7826 200.038 87.8894 201.573 88.5449C203.107 89.2005 204.798 89.3751 206.43 89.0466C208.062 88.7181 209.561 87.9013 210.737 86.7002C211.913 85.4991 212.713 83.968 213.034 82.3016C213.355 80.6353 213.183 78.909 212.541 77.3425C211.898 75.7761 210.814 74.4402 209.425 73.5049C208.037 72.5695 206.407 72.0771 204.744 72.0901C202.54 72.1003 200.43 72.9989 198.872 74.5901C197.314 76.1813 196.435 78.3364 196.426 80.5863Z" fill="#ACCAFF"/>
</g>
<rect x="211.806" y="48.0645" width="61.5226" height="26.2753" rx="7" fill="#ACCAFF"/>
<g clip-path="url(#clip1_666_995)">
<path d="M65.1369 82.917C65.1369 82.7896 65.246 80.2677 67.32 79.0959C68.291 78.5703 69.4212 78.4405 70.4823 78.7329C72.1009 76.6855 71.8826 73.7464 70.1268 72.0906C69.3272 71.3676 68.3133 70.9389 67.2472 70.8731C66.181 70.8073 65.124 71.1082 64.2449 71.7276C64.3842 72.6085 64.2604 73.5117 63.8894 74.3196C62.854 76.5135 60.3466 76.8447 60.147 76.867C60.3137 78.4177 60.9706 79.8708 62.0182 81.0065C62.8729 81.9151 63.9494 82.5746 65.1369 82.917Z" fill="#ACCAFF"/>
<path d="M81.7097 70.0242C81.7227 68.2198 81.2096 66.4523 80.2357 64.9465C79.2619 63.4407 77.8713 62.2647 76.2409 61.5682C74.6105 60.8717 72.8141 60.6862 71.0801 61.0352C69.3462 61.3842 67.7531 62.2521 66.5037 63.5282C65.2542 64.8044 64.4048 66.4312 64.0636 68.2017C63.7224 69.9722 63.9047 71.8064 64.5874 73.4708C65.2702 75.1351 66.4224 76.5545 67.8976 77.5483C69.3727 78.5421 71.104 79.0653 72.8713 79.0515C75.2126 79.0406 77.455 78.0859 79.1103 76.3952C80.7656 74.7046 81.6999 72.4148 81.7097 70.0242Z" fill="#ACCAFF"/>
</g>
<rect x="65.3677" y="114.832" width="65.3677" height="38.4516" rx="7" transform="rotate(180 65.3677 114.832)" fill="#ACCAFF"/>
<g clip-path="url(#clip2_666_995)">
<path d="M86.6984 3H31.8471C29.1699 3 26.9995 5.23238 26.9995 7.98616V16.1268C26.9995 18.8806 29.1699 21.113 31.8471 21.113H86.6984C89.3756 21.113 91.546 18.8806 91.546 16.1268V7.98616C91.546 5.23238 89.3756 3 86.6984 3Z" fill="#ACCAFF"/>
<path d="M91.5706 15.1123C91.5706 15.2395 91.6788 17.758 93.7347 18.9282C94.6973 19.4532 95.8177 19.5827 96.8696 19.2908C98.4741 21.3355 98.2577 24.2706 96.5172 25.9241C95.7245 26.6462 94.7195 27.0743 93.6626 27.1401C92.6056 27.2058 91.5578 26.9053 90.6864 26.2866C90.8245 25.407 90.7017 24.5049 90.3339 23.6982C89.3075 21.5072 86.8219 21.1765 86.624 21.1542C86.7893 19.6055 87.4405 18.1544 88.479 17.0203C89.3263 16.1129 90.3935 15.4543 91.5706 15.1123Z" fill="#ACCAFF"/>
<path d="M107.999 27.9881C108.012 29.7901 107.504 31.5552 106.538 33.059C105.573 34.5628 104.194 35.7372 102.578 36.4327C100.962 37.1283 99.1809 37.3136 97.4621 36.965C95.7432 36.6165 94.164 35.7498 92.9253 34.4753C91.6867 33.2009 90.8447 31.5762 90.5065 29.8081C90.1682 28.04 90.349 26.2083 91.0258 24.5462C91.7026 22.884 92.8448 21.4666 94.3071 20.4741C95.7695 19.4817 97.4858 18.9591 99.2377 18.9729C101.559 18.9838 103.782 19.9372 105.422 21.6256C107.063 23.314 107.99 25.6007 107.999 27.9881Z" fill="#ACCAFF"/>
</g>
<defs>
<clipPath id="clip0_666_995">
<rect width="76.9032" height="32.043" fill="white" transform="matrix(-1 0 0 1 273.329 57.0361)"/>
</clipPath>
<clipPath id="clip1_666_995">
<rect width="81.7097" height="34.0457" fill="white" transform="matrix(1 0 0 -1 0 95.0459)"/>
</clipPath>
<clipPath id="clip2_666_995">
<rect width="81" height="34" fill="white" transform="translate(26.9995 3)"/>
</clipPath>
</defs>
</svg>
