<svg width="95" height="22" viewBox="0 0 95 22" fill="none" xmlns="http://www.w3.org/2000/svg">
<g clip-path="url(#clip0_192_1484)">
<g clip-path="url(#clip1_192_1484)">
<path d="M24.7269 14.3416L19.9984 9.53083C19.8231 9.35275 19.5855 9.25273 19.3378 9.25273C19.0901 9.25273 18.8526 9.35275 18.6773 9.53083L17.0975 11.14C17.0104 11.228 16.9413 11.3327 16.8941 11.4481C16.8469 11.5634 16.8226 11.6871 16.8226 11.812C16.8226 11.937 16.8469 12.0606 16.8941 12.176C16.9413 12.2913 17.0104 12.396 17.0975 12.4841L18.0086 13.411H15.0931C15.0616 13.4092 15.0299 13.4092 14.9984 13.411C14.8401 13.3851 14.6903 13.3211 14.5613 13.2244C14.4323 13.1276 14.3279 13.0009 14.2567 12.8548C14.1544 12.6375 14.1337 12.3896 14.1984 12.1578L19.6649 2.5176C19.7766 2.31373 19.8064 2.07377 19.7479 1.84807C19.6895 1.62236 19.5474 1.42845 19.3515 1.30701L17.3307 0.120531C17.1272 0.00150392 16.8855 -0.0305998 16.6588 0.0312504C16.432 0.0931005 16.2386 0.243864 16.1208 0.450522L11.7476 8.1571C11.6902 8.13614 11.6347 8.11008 11.5818 8.07924C11.4354 7.98399 11.3134 7.85459 11.2259 7.70176C11.1384 7.54894 11.088 7.3771 11.0789 7.2005V5.55796C11.0791 5.40686 11.0501 5.2572 10.9934 5.11754C10.9368 4.97787 10.8536 4.85094 10.7487 4.74401C10.6437 4.63708 10.5191 4.55225 10.3819 4.49437C10.2447 4.43649 10.0977 4.4067 9.94916 4.4067H2.62045C2.57854 4.4067 2.53845 4.4067 2.49654 4.4067C2.28534 4.41549 2.08371 4.49873 1.9262 4.64215C1.85873 4.69668 1.79759 4.75888 1.74399 4.82753L0.269864 6.32732C0.185901 6.41241 0.119277 6.51353 0.0738183 6.62488C0.0283591 6.73623 0.00495911 6.85561 0.00495911 6.97618C0.00495911 7.09675 0.0283591 7.21614 0.0738183 7.32748C0.119277 7.43883 0.185901 7.53995 0.269864 7.62504L5.04392 12.4822C5.12755 12.5676 5.22694 12.6354 5.33638 12.6817C5.44582 12.7279 5.56316 12.7517 5.68167 12.7517C5.80018 12.7517 5.91752 12.7279 6.02697 12.6817C6.13641 12.6354 6.23579 12.5676 6.31943 12.4822L7.94844 10.8248C8.0324 10.7397 8.09902 10.6386 8.14448 10.5273C8.18994 10.4159 8.21334 10.2965 8.21334 10.176C8.21334 10.0554 8.18994 9.93602 8.14448 9.82468C8.09902 9.71333 8.0324 9.61221 7.94844 9.52712L7.01003 8.57237H9.92548C10.112 8.57501 10.2936 8.63406 10.4471 8.74201C10.6006 8.84997 10.719 9.00194 10.7874 9.17859C10.8657 9.37432 10.8766 9.59124 10.8183 9.79408L5.32088 19.4528C5.26271 19.5553 5.22496 19.6684 5.20978 19.7858C5.1946 19.9031 5.20228 20.0223 5.2324 20.1366C5.26252 20.251 5.31449 20.3581 5.38532 20.452C5.45615 20.5459 5.54447 20.6246 5.64523 20.6838L7.66418 21.8703C7.76499 21.9297 7.87635 21.9684 7.99187 21.984C8.10739 21.9996 8.2248 21.9918 8.33737 21.9612C8.44994 21.9305 8.55546 21.8776 8.64787 21.8053C8.74029 21.7331 8.81778 21.643 8.87591 21.5403L13.2363 13.8578C13.3153 13.8844 13.3906 13.9211 13.4605 13.9672C13.5975 14.0648 13.7117 14.1921 13.7948 14.3398C13.878 14.4875 13.9281 14.6521 13.9415 14.8218V16.4161C13.9415 16.7259 14.0625 17.023 14.2777 17.242C14.493 17.461 14.785 17.5841 15.0895 17.5841H22.3781C22.4709 17.5837 22.5633 17.5719 22.6532 17.5489C22.8403 17.5152 23.0126 17.424 23.147 17.2875L24.7287 15.6783C24.9013 15.5 24.9978 15.2598 24.9975 15.0096C24.9972 14.7594 24.8999 14.5194 24.7269 14.3416Z" fill="#E7801C"/>
</g>
<g clip-path="url(#clip2_192_1484)">
<path d="M38.4277 17.7999C37.2545 17.8341 36.0962 17.5313 35.0898 16.9274C34.1731 16.3562 33.4331 15.5414 32.9525 14.574C32.4413 13.5537 32.1832 12.4253 32.2001 11.2842C32.1955 10.1413 32.4703 9.01467 33.0006 8.00229C33.4994 7.0323 34.2554 6.21817 35.1858 5.64895C36.1851 5.04907 37.3346 4.74642 38.4997 4.77645C39.7615 4.74631 41.003 5.09785 42.0617 5.78504C43.0355 6.4211 43.8053 7.3243 44.279 8.38652H42.6781C42.2965 7.71989 41.7438 7.16722 41.0772 6.78561C40.2778 6.38198 39.3922 6.17906 38.4968 6.1944C37.6015 6.20974 36.7233 6.44287 35.9383 6.87365C35.2091 7.3124 34.6182 7.94768 34.2333 8.7067C33.8512 9.51647 33.6529 10.4008 33.6529 11.2962C33.6529 12.1916 33.8512 13.0759 34.2333 13.8857C34.6059 14.6496 35.1891 15.2912 35.9142 15.7347C36.7144 16.2026 37.6291 16.4382 38.5557 16.4151C39.3133 16.4177 40.0612 16.2451 40.741 15.9108C41.4159 15.5897 41.9912 15.0918 42.4059 14.47C42.852 13.8005 43.0786 13.0088 43.0543 12.2047H38.4037V10.8839H44.3751V17.6478H43.0543V15.3985C42.7632 15.832 42.413 16.2227 42.0137 16.5592C41.5602 16.9448 41.0429 17.2482 40.4849 17.4557C39.8267 17.6982 39.1289 17.8149 38.4277 17.7999Z" fill="#404040"/>
<path d="M38.4277 18C37.218 18.0298 36.0246 17.7161 34.9857 17.0955C34.0436 16.5121 33.2795 15.6815 32.7765 14.6941C32.2452 13.6477 31.9708 12.4898 31.976 11.3162C31.968 10.1449 32.2426 8.98885 32.7765 7.94624C33.2973 6.95596 34.0776 6.1259 35.0338 5.54486C36.0656 4.92858 37.2501 4.61514 38.4517 4.64037C39.7529 4.61203 41.0327 4.97449 42.1258 5.68095C43.1316 6.33878 43.9264 7.27256 44.4151 8.37048L44.5432 8.65064H42.5421L42.486 8.54658C42.1211 7.90555 41.5901 7.37467 40.9491 7.00972C40.1822 6.62157 39.3322 6.42669 38.4728 6.44203C37.6134 6.45738 36.7708 6.68248 36.0183 7.09775C35.3301 7.51954 34.7752 8.12723 34.4174 8.85076C34.0317 9.62607 33.8368 10.4823 33.8491 11.3482C33.8406 12.2127 34.0324 13.0675 34.4094 13.8456C34.7644 14.5731 35.3199 15.184 36.0103 15.6066C36.7789 16.0564 37.6574 16.2837 38.5477 16.263C39.2744 16.2658 39.9919 16.1015 40.6449 15.7827C41.2903 15.4724 41.8425 14.9976 42.2458 14.4059C42.6286 13.8257 42.837 13.1479 42.8462 12.4528H38.2035V10.7478H44.6072V17.9119H42.8863V16.0629C42.6699 16.318 42.4345 16.5561 42.1818 16.7753C41.7034 17.1714 41.1623 17.4852 40.5809 17.7038C39.8878 17.9352 39.1576 18.0357 38.4277 18ZM38.4277 4.97655C37.3027 4.95067 36.1931 5.24195 35.2259 5.81704C34.3271 6.37108 33.5964 7.15981 33.1127 8.09833C32.6108 9.09026 32.3554 10.1886 32.3682 11.3002C32.3566 12.4098 32.6061 13.5066 33.0966 14.502C33.5652 15.4362 34.2826 16.2229 35.1698 16.7753C36.1362 17.3524 37.2464 17.6438 38.3717 17.6158C39.0433 17.6278 39.7112 17.5138 40.3408 17.2796C40.9006 17.0871 41.4192 16.7912 41.8697 16.4071C42.2576 16.0859 42.5949 15.7081 42.8702 15.2864L43.2385 14.7261V17.4477H44.159V11.084H38.5558V11.9886H43.2064V12.1887C43.2296 13.0398 42.9922 13.8776 42.526 14.59C42.086 15.2357 41.4843 15.7545 40.781 16.0949C39.9904 16.4676 39.1216 16.6448 38.2482 16.6113C37.3747 16.5779 36.522 16.3349 35.7622 15.9028C35.0073 15.4383 34.3995 14.7694 34.0092 13.9737C33.6114 13.1371 33.4051 12.2225 33.4051 11.2962C33.4051 10.3699 33.6114 9.4552 34.0092 8.61864C34.4114 7.82761 35.0269 7.16491 35.7862 6.70554C36.6198 6.21614 37.5735 5.96941 38.5398 5.99314C39.4419 5.96653 40.3347 6.18212 41.1252 6.6175C41.7855 7.00733 42.3363 7.55811 42.7262 8.21841H43.8628C43.3994 7.31141 42.7068 6.54146 41.8536 5.98513C40.8496 5.3214 39.6713 4.97039 38.4677 4.97655H38.4277Z" fill="#404040"/>
<path d="M46.6724 17.6478V8.04232H48.1052V10.4037C48.1875 10.1739 48.2893 9.95169 48.4094 9.73929C48.5833 9.44312 48.7989 9.17353 49.0497 8.93883C49.3607 8.63952 49.7208 8.39585 50.1143 8.21842C50.5964 8.00989 51.1182 7.90881 51.6432 7.92223H51.7393V9.36307H51.5712C50.9043 9.34489 50.2505 9.5506 49.7141 9.94739C49.1922 10.3399 48.7813 10.8612 48.5214 11.4603C48.2458 12.0885 48.104 12.7673 48.1052 13.4534V17.6798L46.6724 17.6478Z" fill="#404040"/>
<path d="M48.2733 17.8479H46.4403V7.84222H48.2733V9.50716C48.4435 9.23635 48.645 8.9865 48.8736 8.76274C49.1996 8.43127 49.5817 8.16025 50.0023 7.96228C50.5072 7.74412 51.0533 7.63762 51.6032 7.65009H51.8994V9.49116H51.5312C50.9299 9.50721 50.3494 9.71471 49.8742 10.0835C49.3781 10.4565 48.9889 10.9533 48.7456 11.5243C48.479 12.1239 48.3426 12.7732 48.3454 13.4294L48.2733 17.8479ZM46.8405 17.4477H47.8731V13.4454C47.8733 12.732 48.0204 12.0263 48.3053 11.3722C48.5792 10.7392 49.0122 10.1877 49.562 9.7713C50.1248 9.35637 50.808 9.13709 51.5071 9.14694V8.10636C51.0477 8.10567 50.5929 8.19825 50.1704 8.37851C49.797 8.54807 49.4557 8.78098 49.1618 9.06692C48.9181 9.30003 48.7128 9.57018 48.5534 9.86737C48.4388 10.0664 48.3424 10.2754 48.2653 10.4917L47.8731 11.7645V8.24244H46.8405V17.4477Z" fill="#404040"/>
<path d="M57.1744 17.7999C56.3322 17.8241 55.5008 17.6052 54.7797 17.1694C54.0586 16.7336 53.4782 16.0994 53.108 15.3425C52.718 14.5681 52.5177 13.7121 52.5237 12.8451C52.5139 11.9751 52.7144 11.1156 53.108 10.3396C53.477 9.58236 54.0573 8.94808 54.7789 8.51343C55.5005 8.07877 56.3325 7.86234 57.1744 7.89024C57.8846 7.87096 58.5886 8.02769 59.2235 8.34649C59.7799 8.64686 60.2572 9.07481 60.6163 9.59522V8.04233H62.0571V17.6478H60.6163V16.1109C60.2544 16.6226 59.7773 17.0421 59.2235 17.3356C58.5907 17.6611 57.8857 17.8208 57.1744 17.7999ZM57.3665 16.4952C58.0095 16.5173 58.6439 16.3413 59.1835 15.9909C59.6754 15.6609 60.0661 15.2009 60.3122 14.6621C60.5666 14.0902 60.6975 13.471 60.6964 12.8451C60.6999 12.2163 60.5689 11.594 60.3122 11.02C60.0636 10.4828 59.6735 10.0234 59.1835 9.69127C58.6413 9.3474 58.0082 9.17449 57.3665 9.19499C56.7441 9.17511 56.1294 9.33715 55.5976 9.6613C55.0659 9.98545 54.6402 10.4577 54.3728 11.02C54.1093 11.591 53.9729 12.2123 53.9729 12.8411C53.9729 13.4699 54.1093 14.0912 54.3728 14.6621C54.6391 15.226 55.0642 15.6998 55.596 16.0255C56.1278 16.3511 56.7432 16.5143 57.3665 16.4952Z" fill="#404040"/>
<path d="M57.1744 18C56.2946 18.0221 55.4268 17.7918 54.6736 17.3365C53.9205 16.8812 53.3133 16.2198 52.924 15.4305C52.5288 14.6231 52.3233 13.736 52.3233 12.837C52.3233 11.9381 52.5288 11.051 52.924 10.2436C53.3148 9.45664 53.9227 8.79802 54.6759 8.34554C55.4291 7.89306 56.2961 7.66563 57.1744 7.69011C57.9181 7.671 58.655 7.83596 59.3196 8.17037C59.7313 8.39127 60.1022 8.68094 60.4162 9.02686V7.8422H62.2573V17.8479H60.4162V16.6712C60.0964 16.9956 59.726 17.266 59.3196 17.4717C58.6607 17.8263 57.9226 18.0081 57.1744 18ZM57.1744 8.09034C56.3699 8.06472 55.575 8.27157 54.8851 8.68612C54.1951 9.10066 53.6393 9.70531 53.2842 10.4277C52.9192 11.1756 52.7295 11.9968 52.7295 12.829C52.7295 13.6612 52.9192 14.4825 53.2842 15.2304C53.6405 15.9524 54.1964 16.557 54.8859 16.9727C55.5754 17.3884 56.3696 17.5977 57.1744 17.5757C57.8522 17.5968 58.5243 17.4453 59.1275 17.1355C59.655 16.8574 60.108 16.4566 60.4483 15.9668L60.8165 15.4545V17.4237H61.8811V8.24243H60.8405V10.2436L60.4723 9.70726C60.1328 9.21272 59.6799 8.80652 59.1515 8.52257C58.5391 8.21515 57.8592 8.06653 57.1744 8.09034ZM57.3665 16.6953C56.6848 16.7097 56.0139 16.5232 55.4374 16.1589C54.8958 15.814 54.4629 15.3228 54.1887 14.7421C53.9146 14.1444 53.7727 13.4946 53.7727 12.837C53.7727 12.1795 53.9146 11.5297 54.1887 10.932C54.4746 10.3314 54.9302 9.82788 55.4993 9.48359C56.0684 9.13931 56.7259 8.9694 57.3905 8.99486C58.0735 8.97045 58.7472 9.15775 59.3196 9.53115C59.8369 9.88122 60.2492 10.3655 60.5123 10.932C60.7813 11.531 60.9204 12.1803 60.9204 12.837C60.9204 13.4938 60.7813 14.143 60.5123 14.7421C60.2496 15.3446 59.811 15.8535 59.2538 16.2021C58.6967 16.5506 58.0472 16.7226 57.3905 16.6953H57.3665ZM57.3665 9.39509C56.7809 9.37445 56.2021 9.52564 55.7014 9.83003C55.2007 10.1344 54.8001 10.5787 54.5489 11.1081C54.2949 11.6515 54.1663 12.2452 54.1727 12.8451C54.1688 13.4421 54.2974 14.0326 54.5489 14.574C54.7512 14.9654 55.0321 15.3109 55.374 15.5888C55.7159 15.8666 56.1115 16.071 56.536 16.1889C56.9605 16.3069 57.4049 16.3359 57.8411 16.2743C58.2774 16.2127 58.6962 16.0617 59.0715 15.8308C59.5336 15.5182 59.8995 15.083 60.1281 14.574C60.3708 14.0271 60.4962 13.4354 60.4962 12.837C60.4962 12.2387 60.3708 11.647 60.1281 11.1C59.897 10.597 59.5313 10.1676 59.0715 9.85934C58.5634 9.53517 57.9688 9.37326 57.3665 9.39509Z" fill="#404040"/>
<path d="M68.6849 17.7999C67.842 17.8227 67.0101 17.6033 66.288 17.1677C65.5658 16.7322 64.9837 16.0987 64.6106 15.3425C64.223 14.5675 64.0255 13.7115 64.0343 12.8451C64.0217 11.9757 64.2194 11.1161 64.6106 10.3396C64.9744 9.6096 65.5272 8.99042 66.2115 8.54658C66.9478 8.0966 67.7983 7.8687 68.6609 7.89023C69.3711 7.87161 70.0749 8.0283 70.7101 8.34647C71.2652 8.64559 71.7402 9.07391 72.0949 9.5952V4.2001H73.5437V17.6478H72.0949V16.1109C71.7391 16.6251 71.264 17.0454 70.7101 17.3356C70.0841 17.6561 69.3881 17.8157 68.6849 17.7999ZM68.877 16.4951C69.4944 16.5212 70.1052 16.3602 70.6295 16.0331C71.1537 15.706 71.5668 15.2281 71.8147 14.6621C72.0681 14.0884 72.1991 13.4682 72.1991 12.8411C72.1991 12.2139 72.0681 11.5937 71.8147 11.02C71.5674 10.4542 71.1542 9.97671 70.6296 9.65083C70.1051 9.32494 69.4939 9.16598 68.877 9.19497C68.2334 9.17961 67.5992 9.35205 67.052 9.69125C66.5454 10.0156 66.1403 10.4761 65.8833 11.02C65.6146 11.5895 65.4752 12.2114 65.4752 12.8411C65.4752 13.4707 65.6146 14.0926 65.8833 14.6621C66.1403 15.206 66.5454 15.6665 67.052 15.9909C67.5977 16.3336 68.2329 16.5063 68.877 16.4871V16.4951Z" fill="#404040"/>
<path d="M68.685 18C67.8051 18.0221 66.9374 17.7918 66.1842 17.3365C65.431 16.8812 64.8239 16.2198 64.4345 15.4305C64.0393 14.6231 63.8339 13.736 63.8339 12.8371C63.8339 11.9381 64.0393 11.051 64.4345 10.2436C64.824 9.48185 65.4098 8.83795 66.1315 8.3785C66.8994 7.90971 67.7855 7.67083 68.685 7.69012C69.4262 7.66999 70.1608 7.83505 70.8222 8.17038C71.2366 8.38705 71.6082 8.67727 71.9188 9.02687V4H73.7678V17.8479H71.9188V16.6713C71.6021 16.9993 71.2311 17.2701 70.8222 17.4717C70.1665 17.8273 69.4308 18.0092 68.685 18ZM68.685 8.09035C67.8791 8.06317 67.0825 8.26927 66.391 8.6839C65.6995 9.09854 65.1424 9.70405 64.7867 10.4277C64.4269 11.1771 64.24 11.9977 64.24 12.829C64.24 13.6604 64.4269 14.481 64.7867 15.2304C65.1436 15.9536 65.7007 16.5591 66.3918 16.9749C67.0829 17.3907 67.8788 17.5992 68.685 17.5758C69.3626 17.5951 70.0343 17.4437 70.6381 17.1355C71.1656 16.8574 71.6186 16.4566 71.9588 15.9668L72.319 15.4545V17.4237H73.3676V4.40023H72.287V10.2436L71.9268 9.70727C71.5873 9.21273 71.1345 8.80653 70.6061 8.52258C70.0098 8.22603 69.3508 8.07776 68.685 8.09035ZM68.8771 16.6953C68.1928 16.7099 67.5193 16.5234 66.94 16.1589C66.4007 15.8135 65.9705 15.3222 65.6993 14.7421C65.4199 14.1459 65.2751 13.4955 65.2751 12.8371C65.2751 12.1786 65.4199 11.5282 65.6993 10.932C65.9835 10.3301 66.4388 9.82542 67.0082 9.48089C67.5777 9.13636 68.2361 8.96732 68.9011 8.99487C69.5837 8.97305 70.2567 9.16014 70.8302 9.53116C71.3475 9.88123 71.7598 10.3655 72.0229 10.932C72.287 11.5324 72.4234 12.1811 72.4234 12.8371C72.4234 13.493 72.287 14.1418 72.0229 14.7421C71.7602 15.3446 71.3215 15.8535 70.7644 16.2021C70.2072 16.5506 69.5577 16.7226 68.9011 16.6953H68.8771ZM68.8771 9.3951C68.2915 9.37446 67.7127 9.52565 67.212 9.83004C66.7113 10.1344 66.3106 10.5787 66.0594 11.1081C65.7992 11.6497 65.6677 12.2442 65.6752 12.8451C65.6704 13.4431 65.8017 14.0344 66.0594 14.574C66.2977 15.1188 66.6896 15.5824 67.1872 15.9079C67.6848 16.2334 68.2664 16.4067 68.861 16.4067C69.4556 16.4067 70.0373 16.2334 70.5349 15.9079C71.0325 15.5824 71.4244 15.1188 71.6626 14.574C71.9053 14.0271 72.0308 13.4354 72.0308 12.8371C72.0308 12.2387 71.9053 11.647 71.6626 11.1001C71.4301 10.5706 71.0424 10.1242 70.5507 9.81983C70.0591 9.51542 69.4867 9.36732 68.9091 9.3951H68.8771Z" fill="#404040"/>
<path d="M79.8834 17.7999C79.2322 17.7991 78.5914 17.6368 78.0183 17.3276C77.4191 17.0038 76.9227 16.5185 76.5855 15.9268C76.2035 15.2229 76.0156 14.43 76.0412 13.6295V8.02631H77.482V13.5735C77.4699 13.9598 77.5345 14.3448 77.6718 14.7061C77.8092 15.0674 78.0167 15.3979 78.2824 15.6787C78.5281 15.9422 78.8275 16.15 79.1602 16.288C79.493 16.4261 79.8515 16.4913 80.2116 16.4791C80.5963 16.4869 80.9785 16.4164 81.3352 16.272C81.6918 16.1276 82.0154 15.9123 82.2863 15.6391C82.5573 15.3659 82.7699 15.0405 82.9114 14.6827C83.0528 14.3249 83.1201 13.9421 83.1092 13.5575V8.02631H84.55V17.6318H83.1092V16.1349C82.7598 16.596 82.3317 16.9916 81.8445 17.3036C81.2541 17.659 80.5717 17.8317 79.8834 17.7999Z" fill="#404040"/>
<path d="M79.8834 18C79.1987 17.999 78.5249 17.8285 77.9222 17.5037C77.2935 17.1621 76.7724 16.6521 76.4174 16.0309C76.0127 15.2968 75.8136 14.4672 75.8411 13.6295V7.84219H77.6821V13.5895C77.6634 13.948 77.7161 14.3066 77.837 14.6446C77.9579 14.9826 78.1447 15.2933 78.3865 15.5586C78.6144 15.8014 78.8916 15.9927 79.1994 16.1198C79.5073 16.2468 79.8387 16.3065 80.1715 16.295C80.6484 16.3011 81.1182 16.1795 81.5323 15.9428C81.9319 15.7114 82.2676 15.384 82.5089 14.9903C82.7548 14.5592 82.8792 14.0696 82.869 13.5734V7.84219H84.7101V17.8479H82.869V16.6953C82.5856 17.0002 82.2657 17.269 81.9165 17.4957C81.3001 17.8525 80.5951 18.0273 79.8834 18ZM76.2413 8.24242V13.6295C76.2154 14.394 76.3951 15.1514 76.7616 15.8228C77.0782 16.3844 77.5472 16.845 78.1144 17.1515C78.6581 17.4445 79.2657 17.5985 79.8834 17.5998C80.5193 17.6258 81.1495 17.4703 81.7004 17.1515C82.1672 16.8534 82.5767 16.4739 82.9091 16.0309L83.2693 15.5506V17.4477H84.2939V8.24242H83.2533V13.5734C83.2682 14.1238 83.133 14.668 82.8623 15.1474C82.5916 15.6268 82.1955 16.0236 81.7164 16.295C81.2401 16.5627 80.7019 16.7007 80.1555 16.6953C79.7683 16.707 79.3831 16.6359 79.0256 16.4869C78.6681 16.3378 78.3465 16.1141 78.0823 15.8307C77.8077 15.5284 77.5957 15.1747 77.4583 14.79C77.3209 14.4054 77.2609 13.9974 77.2819 13.5895V8.24242H76.2413Z" fill="#404040"/>
<path d="M90.5855 17.7999C89.8146 17.8251 89.0482 17.6745 88.3442 17.3596C87.7839 17.1052 87.3027 16.7042 86.9514 16.199C86.6326 15.7229 86.4474 15.1701 86.4151 14.5981H87.912C87.9551 14.9283 88.0698 15.2452 88.2481 15.5266C88.4573 15.8489 88.7546 16.1045 89.1046 16.263C89.5773 16.4632 90.0885 16.5561 90.6015 16.5351C90.84 16.5331 91.078 16.5144 91.3139 16.4791C91.5878 16.4408 91.8564 16.371 92.1144 16.271C92.3701 16.1722 92.598 16.0129 92.7787 15.8067C92.9654 15.5832 93.0598 15.297 93.0429 15.0063C93.0514 14.8267 93.014 14.6479 92.9342 14.4868C92.8543 14.3258 92.7347 14.1877 92.5866 14.0858C92.2254 13.8404 91.8206 13.6665 91.3939 13.5734C90.9056 13.4534 90.3934 13.3333 89.849 13.2213C89.3235 13.1075 88.8072 12.955 88.3042 12.765C87.848 12.5981 87.4388 12.3235 87.1115 11.9645C86.7852 11.5763 86.6191 11.0782 86.6472 10.5717C86.6296 10.1822 86.7072 9.79427 86.8731 9.44142C87.0391 9.08858 87.2885 8.78144 87.5998 8.54658C88.4367 8.00876 89.4251 7.75605 90.4174 7.82617C91.1266 7.79871 91.8328 7.93285 92.4825 8.21841C92.9654 8.44522 93.3816 8.79255 93.6912 9.22697C93.9604 9.62022 94.1281 10.0739 94.1795 10.5477H92.7227C92.6631 10.1305 92.4453 9.75213 92.1144 9.49113C91.6009 9.15425 90.9893 8.99923 90.3773 9.05087C88.8485 9.05087 88.088 9.51514 88.088 10.4357C88.0794 10.6106 88.1179 10.7846 88.1996 10.9395C88.2812 11.0944 88.4031 11.2245 88.5523 11.3162C88.9191 11.5476 89.3223 11.7154 89.745 11.8125C90.2253 11.9325 90.7455 12.0446 91.2899 12.1566C91.8177 12.2576 92.3349 12.4077 92.8347 12.6049C93.2904 12.773 93.6992 13.0474 94.0274 13.4054C94.3494 13.8112 94.5117 14.3209 94.4837 14.8382C94.5047 15.257 94.4178 15.6742 94.2314 16.0498C94.045 16.4254 93.7653 16.7469 93.4191 16.9834C92.5795 17.5373 91.591 17.8221 90.5855 17.7999Z" fill="#404040"/>
<path d="M90.5855 18C89.7838 18.0252 88.9869 17.8664 88.2562 17.5357C87.6656 17.2649 87.1573 16.8423 86.7833 16.311C86.4522 15.815 86.2563 15.2411 86.215 14.6461V14.4299H88.1041V14.6061C88.1406 14.9093 88.2475 15.1999 88.4163 15.4545C88.6086 15.751 88.8883 15.9804 89.2167 16.1109C89.661 16.3016 90.1426 16.3891 90.6255 16.3671C90.856 16.3649 91.0861 16.3462 91.3139 16.311C91.5879 16.2817 91.8569 16.2171 92.1144 16.1189C92.3373 16.0285 92.5371 15.8889 92.6987 15.7107C92.849 15.5259 92.9259 15.2922 92.9148 15.0543C92.9236 14.9058 92.8934 14.7576 92.8275 14.6242C92.7615 14.4909 92.6619 14.377 92.5386 14.2939C92.1971 14.0675 91.8174 13.9047 91.418 13.8136C90.9297 13.6935 90.4174 13.5735 89.8811 13.4614C89.3367 13.3499 88.8015 13.1974 88.2801 13.0051C87.8005 12.8386 87.3653 12.5648 87.0074 12.2047C86.6509 11.7774 86.468 11.2317 86.4951 10.6758C86.4719 10.2565 86.5508 9.8379 86.7251 9.45587C86.8994 9.07383 87.1638 8.73982 87.4957 8.48256C88.367 7.91826 89.3977 7.65145 90.4334 7.72211C91.1726 7.69603 91.9083 7.83552 92.5866 8.13035C93.103 8.37219 93.5472 8.74469 93.8753 9.21097C94.1592 9.63504 94.3376 10.1208 94.3956 10.6278V10.8439H92.5386V10.6758C92.4884 10.308 92.2958 9.97456 92.0023 9.74727C91.5284 9.43864 90.9647 9.29773 90.4014 9.34704C88.3122 9.34704 88.3122 10.2436 88.3122 10.5317C88.3049 10.6745 88.3359 10.8166 88.402 10.9432C88.4682 11.0699 88.5671 11.1766 88.6884 11.2521C89.0353 11.4684 89.4173 11.6228 89.8171 11.7084C90.2893 11.8285 90.8096 11.9485 91.3539 12.0526C91.9001 12.1602 92.4358 12.3156 92.9548 12.5169C93.4439 12.6996 93.8808 12.9991 94.2275 13.3894C94.5908 13.8407 94.7709 14.4122 94.7318 14.9903C94.7534 15.4403 94.6597 15.8883 94.4593 16.2918C94.259 16.6953 93.9587 17.0408 93.5872 17.2956C92.6815 17.8302 91.6344 18.0759 90.5855 18ZM86.6392 14.7982C86.7043 15.2475 86.8684 15.6767 87.1195 16.0549C87.4506 16.5298 87.9043 16.906 88.4322 17.1435C89.1091 17.4446 89.845 17.5896 90.5855 17.5678C91.548 17.6129 92.5019 17.3675 93.3231 16.8633C93.6425 16.6459 93.9002 16.3496 94.0713 16.0032C94.2424 15.6568 94.321 15.272 94.2996 14.8862C94.3276 14.4185 94.1823 13.9568 93.8914 13.5895C93.5903 13.2371 93.2086 12.9625 92.7787 12.789C92.2875 12.6007 91.7815 12.4534 91.2659 12.3488C90.7136 12.2447 90.1933 12.1246 89.713 12.0046C89.2678 11.9029 88.843 11.727 88.4563 11.4843C88.2797 11.374 88.1355 11.2188 88.0385 11.0346C87.9414 10.8504 87.895 10.6437 87.9039 10.4357C87.9039 9.38707 88.7044 8.83476 90.3934 8.83476C91.0528 8.77656 91.7121 8.94914 92.2584 9.32303C92.581 9.57745 92.8093 9.93249 92.9068 10.3316H93.9634C93.8917 9.97016 93.7474 9.62703 93.5392 9.32303C93.2527 8.91427 92.8634 8.58844 92.4105 8.37849C91.7876 8.10866 91.1117 7.9828 90.4334 8.01029C89.4845 7.94186 88.5388 8.1804 87.7358 8.69068C87.4478 8.90544 87.2174 9.18812 87.0652 9.51354C86.913 9.83896 86.8436 10.197 86.8634 10.5557C86.8353 11.0112 86.9812 11.4604 87.2716 11.8125C87.5835 12.1408 87.967 12.3928 88.3922 12.5489C88.8847 12.7336 89.3904 12.8808 89.9051 12.9891L91.458 13.3493C91.9069 13.4474 92.3333 13.6294 92.7147 13.8856C92.8908 14.0056 93.0332 14.1686 93.1285 14.3592C93.2237 14.5497 93.2687 14.7614 93.259 14.9743C93.2718 15.3091 93.1607 15.6369 92.9468 15.8948C92.744 16.1235 92.4885 16.2993 92.2024 16.4071C91.9249 16.5182 91.6344 16.5935 91.3379 16.6312C91.094 16.6666 90.8479 16.6853 90.6015 16.6872C90.0523 16.7109 89.5049 16.6096 89.0006 16.3911C88.619 16.2181 88.2943 15.9406 88.0641 15.5906C87.9019 15.3332 87.7879 15.0484 87.7278 14.7501L86.6392 14.7982Z" fill="#404040"/>
</g>
</g>
<defs>
<clipPath id="clip0_192_1484">
<rect width="95" height="22" fill="white"/>
</clipPath>
<clipPath id="clip1_192_1484">
<rect width="25" height="22" fill="white"/>
</clipPath>
<clipPath id="clip2_192_1484">
<rect width="62.6998" height="14" fill="white" transform="translate(32 4)"/>
</clipPath>
</defs>
</svg>
